HIERARCHY
ROOT Hips
{
	OFFSET 48.685001 -4.718725 94.317497
	CHANNELS 6 Xposition Yposition Zposition Xrotation Yrotation Zrotation
	JOINT spine
	{
		OFFSET 0.000000 -0.448575 7.800591
		CHANNELS 3 Xrotation Yrotation Zrotation
		JOINT spine1
		{
			OFFSET 0.000000 -0.000001 10.136398
			CHANNELS 3 Xrotation Yrotation Zrotation
			JOINT spine2
			{
				OFFSET 0.000000 -0.000002 9.712509
				CHANNELS 3 Xrotation Yrotation Zrotation
				JOINT Neck
				{
					OFFSET 0.000000 -1.188874 24.936096
					CHANNELS 3 Xrotation Yrotation Zrotation
					JOINT Head
					{
						OFFSET 0.000000 -0.000001 7.533844
						CHANNELS 3 Xrotation Yrotation Zrotation
						End Site
						{
							OFFSET 0.000000 6.014017 18.236099
						}
					}
				}
				JOINT RightShoulder
				{
					OFFSET -4.089649 0.569456 10.488800
					CHANNELS 3 Xrotation Yrotation Zrotation
					JOINT RightArm
					{
						OFFSET 0.000000 -0.000002 13.757004
						CHANNELS 3 Xrotation Yrotation Zrotation
						JOINT RightArmRoll
						{
							OFFSET 0.000000 -0.000001 6.944778
							CHANNELS 3 Xrotation Yrotation Zrotation
							JOINT RightForeArm
							{
								OFFSET 0.000000 -0.000003 20.227707
								CHANNELS 3 Xrotation Yrotation Zrotation
								JOINT RightForeArmRoll
								{
									OFFSET 0.000000 -0.000001 7.793121
									CHANNELS 3 Xrotation Yrotation Zrotation
									JOINT RightHand
									{
										OFFSET 0.000000 -0.000002 15.639099
										CHANNELS 3 Xrotation Yrotation Zrotation
										End Site
										{
											OFFSET 0.000000 0.000000 0.100006
										}
									}
								}
							}
						}
					}
				}
				JOINT LeftShoulder
				{
					OFFSET 4.089649 0.569456 10.488800
					CHANNELS 3 Xrotation Yrotation Zrotation
					JOINT LeftArm
					{
						OFFSET 0.000000 -0.000002 13.757004
						CHANNELS 3 Xrotation Yrotation Zrotation
						JOINT LeftArmRoll
						{
							OFFSET 0.000000 -0.000001 6.944778
							CHANNELS 3 Xrotation Yrotation Zrotation
							JOINT LeftForeArm
							{
								OFFSET 0.000000 -0.000003 20.227707
								CHANNELS 3 Xrotation Yrotation Zrotation
								JOINT LeftForeArmRoll
								{
									OFFSET 0.000000 -0.000001 7.793121
									CHANNELS 3 Xrotation Yrotation Zrotation
									JOINT LeftHand
									{
										OFFSET 0.000000 -0.000002 15.639099
										CHANNELS 3 Xrotation Yrotation Zrotation
										End Site
										{
											OFFSET 0.000000 0.000000 0.100006
										}
									}
								}
							}
						}
					}
				}
			}
		}
	}
	JOINT RightUpLeg
	{
		OFFSET -6.914158 1.063580 -1.267883
		CHANNELS 3 Xrotation Yrotation Zrotation
		JOINT RightUpLegRoll
		{
			OFFSET 0.000000 -0.000003 18.337799
			CHANNELS 3 Xrotation Yrotation Zrotation
			JOINT RightLeg
			{
				OFFSET 0.000000 0.000004 -22.708504
				CHANNELS 3 Xrotation Yrotation Zrotation
				JOINT RightLegRoll
				{
					OFFSET 0.000000 -0.000004 22.782799
					CHANNELS 3 Xrotation Yrotation Zrotation
					JOINT RightFoot
					{
						OFFSET 0.000000 -0.000003 18.962898
						CHANNELS 3 Xrotation Yrotation Zrotation
						JOINT RightToeBase
						{
							OFFSET 0.000000 -0.000003 15.852005
							CHANNELS 3 Xrotation Yrotation Zrotation
							End Site
							{
								OFFSET 0.006718 0.884892 7.677017
							}
						}
					}
				}
			}
		}
	}
	JOINT LeftUpLeg
	{
		OFFSET 6.914158 1.063580 -1.267883
		CHANNELS 3 Xrotation Yrotation Zrotation
		JOINT LeftUpLegRoll
		{
			OFFSET 0.000000 -0.000003 18.337898
			CHANNELS 3 Xrotation Yrotation Zrotation
			JOINT LeftLeg
			{
				OFFSET 0.000000 -0.000004 22.708405
				CHANNELS 3 Xrotation Yrotation Zrotation
				JOINT LeftLegRoll
				{
					OFFSET 0.000000 -0.000004 22.993408
					CHANNELS 3 Xrotation Yrotation Zrotation
					JOINT LeftFoot
					{
						OFFSET 0.000000 -0.000003 18.752197
						CHANNELS 3 Xrotation Yrotation Zrotation
						JOINT LeftToeBase
						{
							OFFSET 0.000000 -0.000003 15.852005
							CHANNELS 3 Xrotation Yrotation Zrotation
							End Site
							{
								OFFSET -0.030113 0.884892 7.677002
							}
						}
					}
				}
			}
		}
	}
}
MOTION
Frames: 11
Frame Time: 0.041667
55.313004 -9.335804 93.923111 -3.131612 0.481520 -0.949716 -0.054909 -0.006218 0.153822 3.893671 -0.032911 0.307525 5.538741 -0.029229 0.307897 20.113879 12.298167 -3.186887 -11.691470 -12.048527 -2.939002 -16.415917 -71.460110 -19.586763 -58.540807 -108.209779 -42.289721 0.000001 0.000001 0.000003 17.162334 -8.426602 0.009547 0.000001 0.000004 -3.000001 -5.000251 -7.998944 0.000114 -8.584671 65.338109 10.560230 -21.395641 106.707342 5.277112 0.000000 0.000016 -0.000002 18.551359 1.871237 0.695652 -0.000006 -0.000003 2.999999 -5.000226 7.999909 -0.000039 -4.299830 -177.152021 -1.085133 -179.999991 0.000005 -0.927999 166.918690 0.502612 -0.816212 -0.000002 -0.000003 0.026569 69.815441 5.651531 5.352698 25.456931 -7.355075 0.000001 -2.713471 179.734297 6.081133 -0.000005 -0.000004 -1.482610 -14.733628 5.366291 0.865524 -0.000003 -0.000005 -0.325490 75.433641 -7.903263 1.516548 25.463451 7.349449 -0.000836 
55.305702 -9.340693 93.912605 -3.119339 0.479186 -0.949248 -0.053272 -0.007254 0.153343 3.897641 -0.033267 0.306354 5.542712 -0.029603 0.306730 20.035723 12.322258 -3.186702 -11.713120 -12.084396 -2.948929 -16.406924 -71.439715 -19.576553 -58.418786 -108.186645 -42.155617 0.000001 0.000001 0.000001 17.174374 -8.422216 0.008916 -0.000001 0.000004 -3.000001 -5.000251 -7.998945 0.000113 -8.588474 65.336073 10.564445 -21.258057 106.691496 5.157439 0.000000 0.000015 -0.000001 18.616217 1.890990 0.693669 -0.000008 -0.000003 3.000002 -5.000226 7.999909 -0.000041 -4.316318 -177.131162 -1.033890 -179.999991 0.000005 -0.928996 166.906013 0.435382 -0.818727 -0.000003 -0.000003 0.026793 69.822681 5.661432 5.326593 25.456928 -7.355075 0.000001 -2.723151 179.731305 6.074040 -0.000005 -0.000004 -1.482570 -14.738602 5.372294 0.866648 -0.000005 -0.000005 -0.324910 75.433477 -7.903185 1.516349 25.463451 7.349451 -0.000836 
55.299805 -9.365803 93.911407 -3.107248 0.476917 -0.948741 -0.051656 -0.008342 0.152916 3.901610 -0.033646 0.305273 5.546682 -0.029999 0.305652 19.957633 12.346055 -3.186306 -11.734167 -12.120289 -2.958702 -16.398337 -71.419900 -19.566796 -58.299476 -108.163108 -42.024286 -0.000001 0.000000 0.000002 17.185924 -8.418003 0.008301 -0.000000 0.000004 -3.000002 -5.000252 -7.998943 0.000114 -8.592690 65.334325 10.569141 -21.125290 106.676271 5.041465 0.000001 0.000016 -0.000001 18.679768 1.909629 0.691685 -0.000009 -0.000003 3.000000 -5.000224 7.999909 -0.000041 -4.331800 -177.109264 -0.978582 -179.999991 0.000005 -0.928996 166.895235 0.363292 -0.822431 -0.000002 -0.000003 0.026893 69.828487 5.671342 5.300465 25.456924 -7.355075 0.000000 -2.732482 179.728314 6.067177 -0.000005 -0.000004 -1.482670 -14.744271 5.378126 0.867782 -0.000005 -0.000005 -0.324381 75.434877 -7.903229 1.516839 25.463449 7.349449 -0.000836 
55.328003 -9.375063 93.914207 -3.095296 0.474694 -0.948205 -0.050058 -0.009468 0.152526 3.905581 -0.034041 0.304254 5.550651 -0.030409 0.304638 19.879624 12.369653 -3.185744 -11.755016 -12.156086 -2.968401 -16.390121 -71.400571 -19.557453 -58.181908 -108.139230 -41.894830 0.000000 0.000000 -0.000001 17.197168 -8.413919 0.007691 -0.000001 0.000004 -3.000001 -5.000251 -7.998943 0.000114 -8.597147 65.332658 10.574126 -20.994596 106.662447 4.926658 0.000000 0.000016 -0.000003 18.742507 1.927484 0.689689 -0.000006 -0.000003 3.000001 -5.000224 7.999908 -0.000041 -4.346593 -177.085386 -0.920527 -179.999991 0.000005 -0.929994 166.885823 0.287311 -0.825070 -0.000003 -0.000003 0.026904 69.833350 5.681245 5.274282 25.456933 -7.355074 0.000000 -2.741582 179.725308 6.060473 -0.000005 -0.000004 -1.482850 -14.750642 5.383833 0.868944 -0.000004 -0.000005 -0.323887 75.437274 -7.903448 1.517878 25.463451 7.349450 -0.000836 
55.313904 -9.385083 93.908806 -3.083415 0.472497 -0.947653 -0.048466 -0.010615 0.152157 3.909551 -0.034445 0.303271 5.554622 -0.030827 0.303660 19.801601 12.393242 -3.185083 -11.775570 -12.191887 -2.978045 -16.382147 -71.381535 -19.548379 -58.065528 -108.115242 -41.766716 0.000000 0.000000 -0.000000 17.208115 -8.409907 0.007078 -0.000001 0.000004 -3.000002 -5.000254 -7.998944 0.000112 -8.601787 65.331183 10.579328 -20.866911 106.647981 4.814430 0.000001 0.000016 0.000000 18.804744 1.944895 0.687673 -0.000009 -0.000002 3.000000 -5.000224 7.999909 -0.000040 -4.360975 -177.060524 -0.860898 -179.999991 0.000005 -0.929993 166.877108 0.209382 -0.829190 -0.000003 -0.000003 0.026866 69.837694 5.691135 5.248120 25.456930 -7.355074 0.000001 -2.750552 179.722317 6.053861 -0.000005 -0.000004 -1.483081 -14.757211 5.389476 0.870107 -0.000003 -0.000005 -0.323414 75.440375 -7.903692 1.519366 25.463452 7.349450 -0.000836 
55.294205 -9.392133 93.896210 -3.071553 0.470307 -0.947096 -0.046880 -0.011768 0.151793 3.913520 -0.034851 0.302297 5.558592 -0.031247 0.302690 19.723570 12.416830 -3.184345 -11.796127 -12.227685 -2.987706 -16.374279 -71.362595 -19.539411 -57.949094 -108.091275 -41.638472 0.000001 0.000001 0.000001 17.219168 -8.405906 0.006484 -0.000001 0.000005 -3.000000 -5.000252 -7.998944 0.000112 -8.606453 65.329701 10.584550 -20.739536 106.633637 4.702400 0.000000 0.000016 0.000001 18.866787 1.962188 0.685616 -0.000006 -0.000003 3.000000 -5.000225 7.999909 -0.000041 -4.375251 -177.036645 -0.800788 -179.999991 0.000005 -0.931005 166.868475 0.130499 -0.832559 -0.000003 -0.000003 0.026815 69.841853 5.701074 5.221879 25.456931 -7.355074 0.000001 -2.759484 179.720322 6.047231 -0.000005 -0.000004 -1.483320 -14.763882 5.395089 0.871270 -0.000004 -0.000005 -0.322946 75.443606 -7.903957 1.520858 25.463454 7.349450 -0.000836 
55.292706 -9.388843 93.892815 -3.059664 0.468104 -0.946547 -0.045291 -0.012910 0.151419 3.917491 -0.035252 0.301306 5.562562 -0.031664 0.301703 19.645531 12.440503 -3.183585 -11.816810 -12.263569 -2.997448 -16.366255 -71.343450 -19.530279 -57.831806 -108.067492 -41.509385 0.000000 -0.000000 -0.000001 17.230214 -8.401882 0.005864 0.000000 0.000005 -3.000001 -5.000253 -7.998944 0.000114 -8.611037 65.328130 10.589684 -20.610893 106.619273 4.589338 0.000001 0.000015 0.000000 18.929135 1.979697 0.683520 -0.000007 -0.000002 3.000000 -5.000226 7.999910 -0.000041 -4.389732 -177.011770 -0.741593 -179.999991 0.000005 -0.931004 166.859500 0.052580 -0.835729 -0.000003 -0.000003 0.026790 69.846320 5.710970 5.195713 25.456928 -7.355075 0.000001 -2.768487 179.717331 6.040600 -0.000005 -0.000004 -1.483530 -14.770457 5.400752 0.872441 -0.000004 -0.000005 -0.322468 75.446488 -7.904219 1.522229 25.463449 7.349449 -0.000836 
55.311005 -9.402831 93.894409 -3.047667 0.465868 -0.946015 -0.043686 -0.014025 0.151018 3.921461 -0.035643 0.300269 5.566531 -0.032070 0.300671 19.567491 12.464267 -3.182821 -11.837701 -12.299338 -3.007265 -16.357980 -71.323936 -19.520863 -57.712223 -108.044071 -41.378010 0.000000 0.000000 0.000000 17.241561 -8.397764 0.005247 -0.000002 0.000004 -3.000000 -5.000252 -7.998944 0.000114 -8.615422 65.326470 10.594585 -20.479468 106.604725 4.474092 0.000000 0.000015 -0.000001 18.992195 1.997769 0.681362 -0.000009 -0.000003 3.000000 -5.000226 7.999909 -0.000041 -4.404703 -176.988902 -0.684333 -179.999991 0.000005 -0.932002 166.849596 -0.022396 -0.839235 -0.000003 -0.000003 0.026826 69.851518 5.720845 5.169505 25.456928 -7.355074 0.000001 -2.777656 179.714339 6.033850 -0.000005 -0.000004 -1.483690 -14.776525 5.406494 0.873592 -0.000003 -0.000006 -0.321964 75.448619 -7.904384 1.523157 25.463452 7.349449 -0.000836 
55.319202 -9.409282 93.917915 -3.035520 0.463582 -0.945515 -0.042065 -0.015098 0.150576 3.925421 -0.036017 0.299161 5.570492 -0.032460 0.299567 19.489260 12.488321 -3.182106 -11.859118 -12.335175 -3.017282 -16.349477 -71.304013 -19.511171 -57.589730 -108.021272 -41.243493 0.000001 0.000000 0.000000 17.253203 -8.393500 0.004608 0.000000 0.000004 -3.000000 -5.000252 -7.998944 0.000113 -8.619535 65.324715 10.599167 -20.343696 106.589828 4.355370 0.000001 0.000016 -0.000001 19.056163 2.016728 0.679121 -0.000005 -0.000004 2.999999 -5.000225 7.999909 -0.000040 -4.420478 -176.966049 -0.630404 -179.999991 0.000005 -0.932999 166.838080 -0.092507 -0.842630 -0.000003 -0.000003 0.026963 69.857747 5.730733 5.143442 25.456930 -7.355076 0.000001 -2.787096 179.711348 6.026923 -0.000005 -0.000004 -1.483739 -14.782097 5.412373 0.874740 -0.000003 -0.000005 -0.321421 75.449548 -7.904384 1.523420 25.463451 7.349450 -0.000836 
55.302105 -9.411860 93.913803 -3.023169 0.461224 -0.945055 -0.040419 -0.016113 0.150078 3.929391 -0.036365 0.297955 5.574461 -0.032828 0.298364 19.411037 12.512651 -3.181494 -11.881053 -12.370985 -3.027490 -16.340393 -71.283324 -19.500830 -57.463638 -107.999108 -41.105267 0.000001 0.000001 0.000002 17.265446 -8.389046 0.003971 -0.000002 0.000004 -3.000001 -5.000252 -7.998943 0.000114 -8.623186 65.322591 10.603193 -20.202036 106.574467 4.232003 0.000000 0.000015 0.000001 19.121461 2.036922 0.676782 -0.000008 -0.000003 3.000001 -5.000223 7.999909 -0.000039 -4.437336 -176.946173 -0.580822 -179.999991 0.000005 -0.932999 166.824543 -0.157729 -0.844930 -0.000003 -0.000003 0.027237 69.865561 5.740601 5.117395 25.456931 -7.355074 0.000001 -2.796909 179.708342 6.019748 -0.000005 -0.000004 -1.483660 -14.786671 5.418452 0.875858 -0.000004 -0.000005 -0.320820 75.448687 -7.904284 1.522872 25.463451 7.349450 -0.000836 
55.304504 -9.427982 93.912109 -3.010545 0.458775 -0.944649 -0.038736 -0.017053 0.149506 3.933361 -0.036684 0.296622 5.578432 -0.033167 0.297035 19.332739 12.537460 -3.181050 -11.903721 -12.406753 -3.037955 -16.330736 -71.261761 -19.489834 -57.332164 -107.977846 -40.961546 0.000001 0.000001 -0.000002 17.278283 -8.384346 0.003285 -0.000001 0.000005 -3.000000 -5.000252 -7.998943 0.000112 -8.626305 65.320104 10.606595 -20.052932 106.558478 4.102787 0.000000 0.000016 -0.000001 19.188570 2.058661 0.674331 -0.000009 -0.000003 3.000002 -5.000224 7.999909 -0.000040 -4.455593 -176.928291 -0.536912 -179.999991 0.000005 -0.933996 166.808205 -0.216145 -0.847660 -0.000002 -0.000003 0.027686 69.875239 5.750432 5.091444 25.456930 -7.355074 0.000001 -2.807199 179.704353 6.012309 -0.000005 -0.000004 -1.483411 -14.790245 5.424779 0.876960 -0.000003 -0.000005 -0.320149 75.445744 -7.903899 1.521215 25.463447 7.349451 -0.000836 
